<?xml version="1.0" encoding="UTF-8" standalone="no"?>
<!-- Created with Inkscape (http://www.inkscape.org/) -->

<svg
   width="1024"
   height="1024"
   viewBox="0 0 1024 1024"
   version="1.1"
   id="svg1"
   sodipodi:docname="icon2.svg"
   xml:space="preserve"
   inkscape:version="1.3.2 (091e20e, 2023-11-25)"
   inkscape:export-filename="icon2.png"
   inkscape:export-xdpi="96"
   inkscape:export-ydpi="96"
   xmlns:inkscape="http://www.inkscape.org/namespaces/inkscape"
   xmlns:sodipodi="http://sodipodi.sourceforge.net/DTD/sodipodi-0.dtd"
   xmlns="http://www.w3.org/2000/svg"
   xmlns:svg="http://www.w3.org/2000/svg"><sodipodi:namedview
     id="namedview1"
     pagecolor="#ffffff"
     bordercolor="#000000"
     borderopacity="0.25"
     inkscape:showpageshadow="2"
     inkscape:pageopacity="0.0"
     inkscape:pagecheckerboard="0"
     inkscape:deskcolor="#d1d1d1"
     inkscape:document-units="mm"
     inkscape:zoom="0.28083394"
     inkscape:cx="475.36989"
     inkscape:cy="648.06982"
     inkscape:window-width="1472"
     inkscape:window-height="891"
     inkscape:window-x="0"
     inkscape:window-y="37"
     inkscape:window-maximized="0"
     inkscape:current-layer="layer1"
     inkscape:export-bgcolor="#ffffffff" /><defs
     id="defs1" /><g
     inkscape:label="Layer 1"
     inkscape:groupmode="layer"
     id="layer1"><rect
       style="display:inline;fill:#f5e07e;fill-opacity:1;stroke-width:1.0984;image-rendering:auto;opacity:0.80059524"
       id="rect3"
       width="896"
       height="200"
       x="64"
       y="64"
       ry="59.259258"
       rx="59.733334" /><rect
       style="opacity:0.800595;fill:#a7c268;fill-opacity:1;stroke-width:1.0984"
       id="rect3-4"
       width="896"
       height="200"
       x="64"
       y="-960"
       rx="59.733334"
       ry="59.259258"
       transform="rotate(90)" /><rect
       style="opacity:0.800595;fill:#b4c3eb;fill-opacity:1;stroke-width:1.0984"
       id="rect3-6"
       width="896"
       height="200"
       x="-960"
       y="-960"
       rx="59.733334"
       ry="59.259258"
       transform="scale(-1)" /><rect
       style="opacity:0.800595;fill:#b283c1;fill-opacity:1;stroke-width:1.0984"
       id="rect3-65"
       width="896"
       height="200"
       x="-960"
       y="64"
       rx="59.733334"
       ry="59.259258"
       transform="rotate(-90)" /><g
       id="g13"
       transform="translate(-749.9026,-65.89236)"><path
         style="opacity:1;fill:#000000;fill-opacity:1"
         d="m 1078.8558,473.81788 60.1408,-99.4853 c 0,0 48.3375,32.03764 119.1576,32.5997 70.82,0.56207 161.9134,-16.75651 161.9134,-16.75651 l -74.8368,82.80901 c 0,0 -69.6527,7.0158 -129.2314,1.39516 -59.5788,-5.62064 -109.6025,-25.29287 -109.6025,-25.29287 l -16.8619,28.10319 z"
         id="path10"
         sodipodi:nodetypes="ccsccsccc" /><path
         style="opacity:1;fill:#000000;fill-opacity:1"
         d="m 1139.087,599.6802 50.7404,-67.37658 h 168.4414 l -46.5813,67.79247 z"
         id="path11"
         sodipodi:nodetypes="ccccc" /><path
         style="opacity:1;fill:#000000;fill-opacity:1"
         d="m 1078.8558,767.73597 341.2118,-377.5602 v 0 21.10527 l -316.3299,352.20092 z"
         id="path12"
         sodipodi:nodetypes="cccccc" /><path
         style="opacity:1;fill:#000000;fill-opacity:1"
         d="m 1432.5085,681.96685 -60.1407,99.48529 c 0,0 -48.3376,-32.03764 -119.1575,-32.59969 -70.8201,-0.56208 -161.9136,16.7565 -161.9136,16.7565 l 74.8369,-82.80901 c 0,0 69.6527,-7.0158 129.2313,-1.39516 59.5788,5.62065 109.6025,25.29287 109.6025,25.29287 l 16.8619,-28.10317 z"
         id="path13"
         sodipodi:nodetypes="ccsccsccc" /></g></g></svg>
